<svg xmlns="http://www.w3.org/2000/svg" width="96" height="44" fill="none"><g clip-path="url(#a)"><g clip-path="url(#b)"><path fill="#5B3C2F" d="m22.339 23.025-.213-.24c2.25-1.558 3.686-4.119 3.634-6.57-.07-3.28-2.483-5.569-5.866-5.569h-3.622c-.763.006-1.52.006-2.283.013-1.19.013-2.231.485-3.104 1.416-.55.583-.9 1.275-1.061 2.109L7.586 25.392a17.31 17.31 0 0 0-.11.563c-.142.783.026 1.52.466 2.076.42.524 1.041.828 1.753.86h.116c1.475 0 2.846-1.125 3.156-2.606.123-.576.233-1.158.35-1.733l.051-.26h2.186c.401.44.796.887 1.19 1.327l2.141 2.406c.66.737 1.533.996 2.536.763 1.04-.246 1.83-.893 2.27-1.863.459-1.015.349-1.992-.324-2.755-.336-.382-.679-.763-1.015-1.145h-.013Zm-2.205-5.808c-.091.783-.925 1.565-1.695 1.585-1.17.032-2.328.026-3.5.026h-.478l.544-2.704h.717c.99 0 1.98-.006 2.97-.006.497 0 .995.02 1.241.297.175.194.246.472.207.809l-.006-.007Z"/><path fill="#5B3C2F" d="M88.743 13.201c-1.435-1.74-3.576-2.697-6.04-2.697h-.026c-4.03.013-7.962 2.626-9.864 6.222a6.057 6.057 0 0 0-.207-2.128c-.666-2.348-2.386-3.738-4.96-4.017-.42-.045-.835-.045-1.242-.038h-.317c-1.669 0-3.344 0-5.013.013-1.196 0-2.25.485-3.13 1.416-.084.09-.149.181-.226.278a2.288 2.288 0 0 0-.53-.944c-.453-.479-1.094-.737-1.799-.737-3.59 0-7.185.012-10.775.025-.22 0-.453.033-.692.091a3.357 3.357 0 0 0-1.824 1.184c-.388-.802-1.145-1.262-2.173-1.262-2.93 0-5.86.007-8.79.02h-.55c-.265 0-.53.032-.782.084a4.35 4.35 0 0 0-3.37 3.389c-.73 3.66-1.462 7.321-2.186 10.976-.064.33-.09.614-.084.88.071 1.74 1.332 2.903 3.137 2.903 1.985 0 3.971-.006 5.957-.013h2.186c.433 0 .86 0 1.293-.006 1.61-.045 3.047-1.468 3.079-3.04.013-.686-.22-1.306-.66-1.753-.446-.452-1.08-.705-1.791-.705l-7.205.013.174-.88h.557c.82 0 1.636 0 2.457-.012 1.468-.02 2.852-1.216 3.092-2.665.116-.724-.071-1.436-.511-1.96-.446-.53-1.1-.828-1.837-.834-.783-.007-1.565 0-2.348 0h-.33l.181-.912 7.516-.013c.815 0 1.533-.272 2.14-.808.169-.15.311-.304.44-.466.091.175.195.343.33.492.447.491 1.08.763 1.792.77h2.477l-1.908 9.571c-.026.143-.058.285-.077.42-.13.822.129 1.598.705 2.135a2.459 2.459 0 0 0 1.681.634c.22 0 .44-.026.666-.078a3.33 3.33 0 0 0 2.477-2.574l2.018-10.122h.376c.782 0 1.565 0 2.347-.013.324 0 .628-.045.912-.135.427-.13.815-.35 1.145-.621L54.542 25.76c-.026.13-.045.259-.058.388-.078.699.123 1.365.563 1.863.446.505 1.086.783 1.804.79h.026c1.481 0 2.833-1.12 3.143-2.607.117-.557.227-1.113.336-1.669l.065-.317h2.186c.356.401.718.802 1.074 1.197l.996 1.125c.44.498.88.996 1.332 1.481.867.938 2.27 1.035 3.5.246.808-.518 1.345-1.32 1.468-2.206.103-.737-.098-1.442-.563-1.972-.408-.466-.822-.925-1.236-1.384a8.89 8.89 0 0 0 2.549-2.71c-.337 2.29.207 4.43 1.558 6.073 1.43 1.74 3.577 2.697 6.048 2.697h.026c5.006-.013 9.876-4.036 10.859-8.977.492-2.465-.039-4.793-1.487-6.559l.012-.019ZM57.68 26.117l-.117-.02s.02-.045.026-.07h.15c-.014.038-.04.064-.06.09Zm9.527-9.023c-.09.802-.906 1.579-1.682 1.598a89.296 89.296 0 0 1-3.48.026h-.517l.537-2.704h.77c1.119 0 2.237-.006 3.35-.006.356 0 .634.103.808.304.169.188.24.46.2.789l.014-.006Zm-22.864-3.447h.078l.02.149h-.098v-.149ZM33.574 19.43h-.072l-.025-.174h.097v.174Zm5.924-5.782H39.57v.104s-.052.026-.077.032v-.13l.006-.006Zm45.229 5.808c-.427 2.07-2.535 3.816-4.618 3.816h-.02c-.93 0-1.726-.362-2.25-1.002-.537-.66-.725-1.546-.53-2.49.426-2.064 2.535-3.803 4.617-3.803h.013c.932 0 1.734.355 2.258 1.002.536.66.724 1.54.53 2.484v-.007Z"/><path fill="#A45C2E" d="M39.633 14.028a.776.776 0 0 0 .64-.64.626.626 0 0 0-.123-.491.647.647 0 0 0-.453-.246H37.155c-2.16.013-4.475.02-6.784.013-.906 0-1.72.672-1.895 1.565-.692 3.57-1.43 7.237-2.174 10.898-.096.46 0 .893.26 1.21.258.317.665.491 1.131.491 2.212-.02 4.463-.02 6.643-.026h2.49c.679-.006.853-.388.899-.614a.613.613 0 0 0-.123-.524c-.207-.246-.57-.252-.673-.246l-9.094.02c-.058 0-.11 0-.148-.013 0-.033 0-.084.019-.162l.964-4.825 4.844-.013h.168a.751.751 0 0 0 .686-.711.612.612 0 0 0-.162-.466c-.13-.136-.31-.2-.556-.2l-4.702.012.899-4.52c.013-.085.032-.169.052-.246.038-.143.11-.2.245-.207l9.21-.026c.104 0 .2 0 .279-.02v-.013ZM22.008 23.316l-.556-.62c2.367-1.43 3.92-4.024 3.861-6.475-.071-3.027-2.302-5.142-5.433-5.142h-3.622c-.756.007-1.52.007-2.276.013-1.061.006-2.005.44-2.794 1.274-.492.524-.803 1.145-.951 1.895L7.999 25.476c-.039.188-.078.369-.11.556-.123.66.013 1.268.375 1.727.336.42.847.667 1.436.692h.103c1.281 0 2.458-.97 2.723-2.257.117-.563.227-1.119.337-1.681l.129-.66h.595c.712 0 1.41 0 2.154.013.42.459.828.918 1.242 1.384l2.212 2.477c.543.608 1.274.828 2.102.627a2.807 2.807 0 0 0 1.972-1.616c.395-.86.304-1.65-.252-2.29a84.519 84.519 0 0 0-1.015-1.138l.006.006Zm-10.853 2.73c-.077.381-.362.73-.744.905-.297.136-.608.142-.834.02-.207-.117-.407-.305-.304-.835.252-1.248.498-2.49.75-3.738l1.598-8.001c.162-.815.647-1.403 1.436-1.74.245-.103.53-.162.782-.168 1.637-.02 2.982-.026 4.243-.026H19.9c1.236.007 2.322.479 3.066 1.313.725.815 1.048 1.921.919 3.098-.24 2.102-1.45 3.758-3.596 4.916l-.085.045c-.064.032-.129.065-.194.11-.342.22-.459.647-.271.977a1.2 1.2 0 0 0 .149.194l.64.718c.466.517.931 1.04 1.39 1.558.13.149.188.33.175.537-.02.278-.181.57-.433.79-.447.387-1.048.4-1.371.044l-.783-.873a145.94 145.94 0 0 1-2.419-2.742c-.433-.511-.944-.731-1.617-.692a34.46 34.46 0 0 1-2.011.026H12.7c-.576 0-.873.22-.977.711l-.187.944c-.123.634-.253 1.268-.382 1.902v.006Z"/><path fill="#A45C2E" d="M21.38 15.2c-.497-.583-1.26-.906-2.153-.906H14.22c-.492 0-.757.22-.854.705l-.957 4.799c-.033.175-.065.427.103.627.162.194.408.22.608.22h3.228c.569-.006 1.138-.006 1.707-.013.213 0 .42-.013.614-.039 1.56-.194 3.027-1.59 3.267-3.11.142-.887-.059-1.695-.556-2.284Zm-.814 2.063c-.11 1.009-1.12 1.953-2.115 1.972-1.08.033-2.174.026-3.234.026H13.93l.711-3.583h1.074c1.138 0 2.283-.006 3.421-.006.466 0 .86.155 1.12.446.251.284.361.692.316 1.145h-.006ZM88.399 13.479c-1.345-1.636-3.376-2.542-5.705-2.542h-.026c-4.805.013-9.481 3.887-10.425 8.628-.466 2.341.032 4.54 1.39 6.196 1.345 1.636 3.37 2.535 5.711 2.535h.02c4.805-.012 9.488-3.88 10.432-8.621.466-2.335-.032-4.534-1.397-6.196Zm-8.906 13.414h-.026c-1.94 0-3.615-.737-4.721-2.076-1.113-1.352-1.514-3.17-1.126-5.103.809-4.055 4.812-7.373 8.926-7.393h.032c1.92 0 3.577.731 4.676 2.063 1.125 1.358 1.526 3.189 1.145 5.136-.802 4.049-4.8 7.36-8.906 7.373Z"/><path fill="#A45C2E" d="M16.66 22.242s.038.014.051.014h.02c.821.93 1.649 1.862 2.47 2.787l1.067 1.203c.098.117.2.226.304.336.266.272.705.278 1.003.013.323-.29.343-.698.052-1.054L18.6 22.165c.556-.078.944-.194 1.546-.46 1.966-.872 3.473-3 3.511-4.947.02-1.138-.362-2.173-1.086-2.91-.744-.757-1.811-1.171-3.014-1.171-1.248 0-2.503 0-3.751.006h-2.09a1.75 1.75 0 0 0-.33.026c-.775.13-1.357.712-1.52 1.514l-2.34 11.732c-.013.052-.02.11-.026.168a.65.65 0 0 0 .18.511.655.655 0 0 0 .466.181h.065c.375-.032.634-.278.712-.679l.776-3.887h1.08c1.293 0 2.587-.006 3.88-.013v.006Zm2.063-1.461a3.01 3.01 0 0 1-.666.077c-1.682.007-3.364.013-5.052.013H11.97l1.294-6.474c.052-.258.09-.29.356-.29h2.043c1.165-.007 2.322-.014 3.486-.014h.272c1.559 0 2.684.944 2.8 2.348.156 1.934-1.416 3.88-3.498 4.34ZM66.3 14.184c-1.366 0-2.743 0-4.114.006h-.912c-.473 0-.744.226-.835.686l-.963 4.831c-.02.097-.078.388.103.608.162.2.408.226.582.226h3.532c.472-.006.95-.006 1.422-.013.208 0 .414-.012.615-.038 1.559-.2 3.027-1.591 3.273-3.111.142-.886-.052-1.695-.557-2.284-.498-.588-1.26-.911-2.153-.911h.006Zm1.344 2.955c-.11 1.01-1.112 1.96-2.102 1.992a91.37 91.37 0 0 1-3.492.026h-1.048l.718-3.576h1.132c1.119-.007 2.231-.013 3.35-.013.472 0 .88.161 1.138.446.253.285.363.673.31 1.125h-.006ZM79.984 25.089c3.008 0 5.938-2.426 6.533-5.4.297-1.482-.013-2.872-.88-3.927-.853-1.041-2.134-1.61-3.609-1.61-3 0-5.93 2.419-6.532 5.394-.298 1.475.013 2.872.873 3.926.854 1.041 2.134 1.617 3.609 1.617h.006Zm-3.104-5.407c.472-2.29 2.736-4.152 5.045-4.152h.013c1.067 0 1.992.413 2.6 1.164.62.763.84 1.772.614 2.852-.472 2.296-2.736 4.165-5.064 4.165-1.06 0-1.986-.42-2.587-1.164-.621-.763-.841-1.779-.615-2.859l-.006-.006Z"/><path fill="#A45C2E" d="M82.371 12.541h-.026c-3.913.013-7.722 3.163-8.485 7.017-.376 1.915.032 3.707 1.144 5.065 1.1 1.332 2.756 2.07 4.657 2.07h.026c3.9-.014 7.697-3.163 8.46-7.018.381-1.915-.026-3.719-1.145-5.07-1.093-1.327-2.742-2.058-4.637-2.058l.006-.006Zm-.13 1.41c1.508 0 2.808.57 3.662 1.604.866 1.048 1.17 2.458.873 3.971-.634 3.176-3.758 5.77-6.96 5.782h-.026c-1.494 0-2.787-.569-3.64-1.604-.874-1.06-1.19-2.477-.893-3.99.627-3.17 3.75-5.75 6.991-5.763h-.006ZM66.642 12.58c-1.287 0-2.575 0-3.868.006H60.84c-.996.007-1.714.602-1.908 1.585l-2.328 11.662a.704.704 0 0 0-.026.168.667.667 0 0 0 .246.588c.11.084.245.13.394.13.09 0 .188-.02.278-.052.401-.155.479-.518.505-.64.2-1.01.4-2.025.601-3.034l.168-.84h1.177a263.13 263.13 0 0 1 3.862.006l3.667 4.133.084.097c.052.058.136.155.265.22.298.155.621.103.867-.15.265-.27.304-.614.103-.898a1.038 1.038 0 0 0-.123-.142l-3-3.344a6.098 6.098 0 0 0 1.513-.453c2.082-.918 3.609-3.156 3.538-5.207-.071-2.257-1.753-3.835-4.088-3.835h.007Zm2.664 4.023c.052 1.701-1.48 3.577-3.292 4.01a4.889 4.889 0 0 1-1.08.136c-1.416.013-2.852.013-4.243.02h-1.649l1.287-6.45c.058-.284.09-.31.375-.316h1.656a632.57 632.57 0 0 1 3.512-.013h.627c1.65 0 2.75 1.028 2.8 2.613h.007Z"/><path fill="#A45C2E" d="m68.803 22.896-.278-.31c2.91-1.792 4.45-5.084 3.654-7.872-.614-2.16-2.199-3.44-4.586-3.706a9.226 9.226 0 0 0-1.19-.032h-.323c-1.669 0-3.337 0-5.012.013-1.074 0-2.018.433-2.814 1.28-.491.518-.802 1.139-.95 1.895l-2.33 11.668c-.025.117-.038.24-.05.35-.066.575.096 1.118.458 1.526.363.407.886.64 1.481.64h.02c1.255 0 2.451-.996 2.716-2.264.117-.556.227-1.112.337-1.668l.135-.666h.544c.756 0 1.494 0 2.192-.013.31.342.615.692.925 1.034l1.287 1.45c.427.484.873.989 1.32 1.474.718.776 1.901.847 2.942.174.692-.446 1.171-1.15 1.275-1.895.084-.608-.078-1.183-.46-1.623-.433-.498-.866-.983-1.293-1.455Zm-1.514-1.17c-.213.11-.504.284-.562.614-.046.22.032.446.233.666l.743.834c.434.479.86.964 1.287 1.442.253.285.246.68-.012 1.068-.227.33-.57.543-.932.569a.816.816 0 0 1-.692-.272l-.867-.976c-.886-.997-1.772-1.986-2.651-2.982-.188-.22-.434-.324-.75-.324-.803 0-1.598.007-2.4.007h-1.003c-.523 0-.782.22-.886.744l-.18.918c-.124.628-.253 1.274-.389 1.915-.078.375-.362.717-.737.892-.298.136-.602.149-.834.026-.214-.116-.414-.297-.311-.828.168-.84.336-1.688.505-2.529l1.836-9.216c.162-.822.64-1.404 1.423-1.74.252-.11.537-.168.783-.175a331.213 331.213 0 0 1 6.138-.02c1.138.007 2.173.44 2.904 1.223.724.763 1.093 1.792 1.041 2.891-.097 2.154-1.513 4.166-3.693 5.252h.006ZM46.379 26.059a.625.625 0 0 0 .136.465c.077.09.22.2.472.214h.045c.317 0 .589-.2.692-.518.026-.084.045-.168.065-.271l2.38-11.914 4.612-.026c.71 0 .873-.446.905-.633a.608.608 0 0 0-.117-.524.75.75 0 0 0-.672-.246l-10.49.026c-.072 0-.137 0-.208.013a.77.77 0 0 0-.627.569c-.065.245 0 .42.058.524.058.097.168.22.388.278.104.026.2.026.317.026h.007l4.43-.013-2.36 11.81a2.556 2.556 0 0 0-.033.22Z"/><path fill="#A45C2E" d="M57.38 13a1.865 1.865 0 0 0-.504-1.39c-.37-.388-.9-.602-1.482-.602-3.59 0-7.185.013-10.775.026-.187 0-.381.026-.588.078-1.035.252-1.889 1.125-2.102 2.095.019-.226 0-.459-.052-.692-.22-.944-.912-1.468-1.94-1.468h-.75c-2.678 0-5.362.007-8.047.02h-.55c-.232 0-.465.025-.691.07a3.912 3.912 0 0 0-3.034 3.053c-.73 3.661-1.461 7.315-2.186 10.976a3.53 3.53 0 0 0-.077.776c.058 1.488 1.144 2.484 2.703 2.484 1.701 0 3.402 0 5.103-.013h3.04c.388 0 .834 0 1.28-.006 1.365-.04 2.627-1.281 2.652-2.613.013-.576-.174-1.074-.53-1.443-.369-.375-.88-.569-1.481-.569l-7.735.02.349-1.753h.918c.867 0 1.656 0 2.451-.013 1.268-.02 2.465-1.048 2.665-2.296.097-.602-.052-1.177-.414-1.61-.362-.434-.899-.673-1.5-.68h-3.208l.355-1.791 7.872-.02c.705 0 1.325-.233 1.85-.698.484-.427.782-.9.905-1.404-.039.563.13 1.08.478 1.468.363.401.887.621 1.469.621h3.014l-2.012 10.096-.077.408c-.11.672.103 1.306.569 1.74.368.342.84.517 1.37.517.188 0 .383-.026.576-.071a2.9 2.9 0 0 0 2.154-2.231l2.09-10.472h.73c.783 0 1.559 0 2.342-.013.278 0 .55-.045.795-.116 1.125-.336 1.953-1.352 2.005-2.477V13Zm-27.423 2.044-.576 2.891c-.039.2-.064.453.104.654.161.2.407.226.614.226h1.223c.873-.007 1.746-.007 2.613 0 .271 0 .485.11.601.317.136.245.11.569-.065.873-.226.382-.646.634-1.067.634l-3.816.013c-.53 0-.782.213-.892.737l-.583 2.91c-.045.214-.064.46.104.667.168.2.427.213.634.232l8.343-.019c.485 0 .738.188.79.57.032.252-.059.536-.26.775-.226.272-.55.447-.866.466h-1.72l-7.665.02c-.705 0-1.145-.253-1.377-.79-.104-.245-.117-.536-.04-.924l.835-4.172.582-2.924c.259-1.3.518-2.6.783-3.9a2.354 2.354 0 0 1 1.798-1.817c.136-.032.278-.045.433-.045 3.105-.013 6.216-.02 9.32-.02.31 0 .556.136.666.363.136.271.078.614-.155.918-.278.369-.62.543-1.054.543l-8.356.02c-.582 0-.828.207-.945.782h-.006Zm18.278-.588c-.169-.2-.427-.233-.666-.233H46.43c-.608 0-1.222.006-1.83.006h-.155c-.414.007-.835.007-1.035-.245-.13-.162-.168-.382-.11-.621.116-.486.653-.938 1.151-.964l10.795-.026c.245 0 .452.084.582.24.123.148.168.362.123.594-.104.544-.634.996-1.184.996-.808 0-1.61 0-2.419.007h-1.21c-.543 0-.795.213-.898.744l-1.417 7.108c-.258 1.3-.517 2.6-.782 3.906-.078.369-.35.705-.718.88-.298.142-.608.155-.841.032-.291-.149-.395-.368-.33-.711.058-.317.117-.628.181-.945l2.012-10.076c.045-.233.07-.492-.097-.692h-.013Z"/><path fill="url(#c)" d="M39.652 13.032h-.169c-3.04.007-6.08.026-9.113.013a1.56 1.56 0 0 0-1.513 1.248c-.705 3.635-1.436 7.27-2.173 10.899-.155.763.343 1.241 1.002 1.235 3.047-.026 6.087-.02 9.133-.026.317 0 .478-.09.51-.291.04-.207-.09-.304-.407-.304l-9.093.02c-.473 0-.615-.175-.518-.64.33-1.644.653-3.287.983-4.93.013-.064.026-.135.046-.213h.245c1.624 0 3.254-.006 4.877-.013h.168a.355.355 0 0 0 .33-.336c.007-.175-.09-.259-.323-.252-1.643 0-3.292.006-4.935.013h-.246c.02-.104.032-.175.052-.253.304-1.539.614-3.072.918-4.611.026-.13.045-.259.078-.395.077-.316.297-.491.614-.504h.207l8.997-.02c.077 0 .148 0 .226-.012a.392.392 0 0 0 .323-.317c.026-.155-.07-.272-.232-.291l.013-.02Z"/><path fill="url(#d)" d="M24.925 16.227c-.065-2.813-2.122-4.753-5.039-4.76h-2.645c-1.086 0-2.166 0-3.253.007-.95.006-1.798.394-2.51 1.151-.478.505-.73 1.087-.853 1.707L8.432 25.309c-.052.259-.11.524-.155.783-.194 1.08.42 1.914 1.442 1.953 1.113.045 2.193-.808 2.432-1.94.168-.815.33-1.63.492-2.445.012-.065.025-.13.038-.207h.194c.958 0 1.915-.007 2.872 0 .097 0 .207.052.272.116.575.634 1.145 1.275 1.714 1.915l1.765 1.979c.427.472.99.686 1.72.505.783-.188 1.372-.66 1.708-1.398.33-.724.259-1.358-.194-1.869-.491-.556-.99-1.106-1.48-1.662-.13-.149-.26-.291-.408-.46.11-.064.207-.116.297-.174 2.296-1.339 3.836-3.861 3.784-6.196v.02Zm-4.851 6.494c.026.045.071.09.103.13.68.756 1.365 1.513 2.038 2.283.465.523.33 1.345-.298 1.888-.614.524-1.449.53-1.92.007-1.074-1.203-2.167-2.393-3.209-3.629-.336-.394-.711-.582-1.3-.55-.97.052-1.927.02-2.89.02-.311 0-.428.09-.486.394-.194.951-.375 1.902-.575 2.853-.207.983-1.359 1.617-2.154 1.183-.466-.252-.615-.685-.498-1.254.343-1.708.679-3.409 1.022-5.116.051-.272.11-.55.161-.822.389-1.934.77-3.867 1.158-5.801.188-.925.731-1.624 1.662-2.018.298-.123.634-.194.932-.2 2.024-.02 4.049-.033 6.066-.02 2.75.02 4.677 2.14 4.366 4.85-.265 2.29-1.584 4.023-3.796 5.22-.084.045-.175.084-.253.136-.168.11-.232.304-.142.446h.013Z"/><path fill="url(#e)" d="M19.226 14.682c-1.668 0-3.337.007-5.006.013-.304 0-.414.09-.472.388-.317 1.598-.64 3.195-.957 4.793-.058.297.013.381.323.381h2.587c.783 0 1.56 0 2.342-.006.187 0 .381-.013.569-.039 1.378-.175 2.716-1.449 2.93-2.788.252-1.584-.718-2.735-2.322-2.735l.006-.007Zm1.727 2.626c-.13 1.17-1.293 2.296-2.496 2.322-1.669.045-3.325.02-5.013.02.291-1.456.576-2.898.867-4.353.052 0 .103-.013.149-.013 1.558 0 3.11-.013 4.67-.013 1.196 0 1.953.853 1.823 2.024v.013Z"/><path fill="url(#f)" d="M82.67 11.332c-4.631.012-9.133 3.744-10.045 8.31-.912 4.573 2.115 8.28 6.74 8.266 4.624-.013 9.138-3.744 10.05-8.31.912-4.56-2.128-8.28-6.746-8.266Zm6.111 8.265c-.84 4.237-4.993 7.671-9.287 7.69-4.301.013-7.108-3.415-6.261-7.644.847-4.23 5.019-7.69 9.314-7.71 4.281-.02 7.082 3.421 6.241 7.664h-.007Z"/><path fill="url(#g)" d="M23.268 16.758c.04-2.173-1.48-3.68-3.712-3.68-1.947 0-3.894.007-5.84.013-.09 0-.175 0-.266.013-.607.104-1.073.57-1.203 1.203-.776 3.9-1.558 7.8-2.334 11.7-.013.052-.026.097-.026.149-.013.181.103.285.29.271.195-.012.318-.135.363-.368a55935.856 55935.856 0 0 1 .84-4.204h.234c1.688 0 3.376 0 5.064-.013.162 0 .259.045.35.149 1.137 1.287 2.276 2.567 3.414 3.848.142.155.272.317.42.466.123.129.324.116.46 0 .161-.143.18-.31.051-.46-.013-.012-.019-.025-.032-.038a1352.885 1352.885 0 0 1-3.544-3.952c1.054-.078 1.43-.168 2.192-.505 1.837-.815 3.24-2.787 3.28-4.598v.006Zm-5.213 4.489c-2.14.013-4.281.013-6.428.02h-.136c.013-.078.026-.143.039-.201.446-2.244.899-4.489 1.345-6.74.09-.44.29-.608.737-.608 1.934 0 3.868-.012 5.802-.012 1.772 0 3.059 1.099 3.188 2.71.168 2.127-1.533 4.255-3.81 4.753a3.697 3.697 0 0 1-.743.084l.006-.006Z"/><path fill="url(#h)" d="M39.93 11.429c-3.11 0-6.222.006-9.34.02-.2 0-.407.018-.614.064a3.527 3.527 0 0 0-2.73 2.742c-.73 3.66-1.46 7.315-2.185 10.976a2.766 2.766 0 0 0-.065.685c.052 1.281.957 2.109 2.309 2.109 2.548 0 5.103-.013 7.658-.02.588 0 1.17.007 1.759-.006 1.17-.032 2.25-1.1 2.27-2.225.02-.963-.627-1.61-1.623-1.61-2.665 0-5.33.013-7.994.02h-.22c.174-.861.336-1.696.504-2.543h.24c1.144 0 2.29 0 3.44-.013 1.08-.013 2.115-.912 2.284-1.972.161-1.003-.511-1.824-1.533-1.83-1.152-.007-2.303 0-3.46 0h-.227c.175-.867.343-1.708.511-2.575h.233c2.652 0 5.303-.013 7.955-.02.576 0 1.12-.18 1.591-.6.68-.596.951-1.294.783-2.038-.175-.763-.718-1.164-1.559-1.164h.013Zm.692 2.51c-.356.465-.821.698-1.365.698-2.787 0-5.568.013-8.356.02-.4 0-.485.064-.563.465-.194.963-.388 1.927-.575 2.89-.065.324 0 .415.33.408 1.28 0 2.56-.013 3.835-.006.931 0 1.378.931.873 1.785-.297.498-.84.828-1.403.828-1.275 0-2.549 0-3.816.006-.337 0-.44.084-.505.42l-.582 2.911c-.065.337.013.427.356.427 2.78 0 5.556-.013 8.337-.02.679 0 1.106.33 1.183.906.104.802-.627 1.63-1.494 1.682h-.207l-9.19.02c-.841 0-1.443-.318-1.747-1.023-.155-.356-.148-.744-.064-1.158.368-1.83.73-3.66 1.1-5.49.368-1.837.73-3.674 1.099-5.505a2.76 2.76 0 0 1 2.095-2.121c.175-.039.35-.058.518-.058 3.104-.013 6.215-.02 9.32-.02 1.028 0 1.48 1.048.828 1.915l-.007.02Z"/><path fill="url(#i)" d="M65.685 20.102c1.377-.175 2.716-1.449 2.936-2.788.259-1.578-.718-2.735-2.322-2.735-1.675 0-3.35 0-5.025.012-.285 0-.395.091-.453.37-.323 1.61-.647 3.22-.964 4.83-.051.272.02.363.304.363h2.607c.782 0 1.559 0 2.341-.007.188 0 .382-.013.57-.038l.006-.007Zm-5.161-.556c.29-1.455.575-2.898.866-4.353.071 0 .13-.006.194-.006 1.54 0 3.072-.013 4.612-.013 1.203 0 1.966.84 1.837 2.011-.13 1.177-1.275 2.303-2.484 2.335-1.675.052-3.337.02-5.032.026h.007Z"/><path fill="url(#j)" d="M82.034 14.54c-2.82 0-5.581 2.283-6.15 5.077-.563 2.794 1.274 5.077 4.1 5.077 2.833 0 5.588-2.277 6.157-5.084.563-2.794-1.28-5.07-4.107-5.07Zm3.5 5.083c-.512 2.477-2.95 4.489-5.453 4.476-2.47-.013-4.094-2.044-3.59-4.495.505-2.464 2.956-4.476 5.446-4.47 2.471.007 4.1 2.038 3.596 4.483v.006Z"/><path fill="url(#k)" d="M82.345 12.935c-3.738.013-7.373 3.027-8.097 6.708-.731 3.686 1.707 6.674 5.445 6.661 3.726-.013 7.341-3.014 8.072-6.7.731-3.693-1.694-6.675-5.42-6.662v-.007Zm4.812 6.669c-.666 3.35-3.958 6.086-7.34 6.099-3.39.013-5.608-2.71-4.948-6.067.66-3.344 3.958-6.067 7.353-6.08 3.396-.012 5.608 2.691 4.935 6.041v.007Z"/><path fill="url(#l)" d="M64.999 21.744c.685-.013 1.365-.18 2.037-.478 1.94-.86 3.37-2.937 3.305-4.838-.064-2.05-1.565-3.454-3.7-3.454-1.933 0-3.867.007-5.801.013-.815 0-1.365.46-1.526 1.261-.776 3.874-1.546 7.749-2.322 11.63-.013.058-.026.11-.033.167-.019.22.169.35.388.26.169-.066.233-.195.26-.35.258-1.326.53-2.652.788-3.978.013-.064.026-.136.045-.22h.22c1.701 0 3.402 0 5.103-.013.136 0 .227.04.304.13 1.255 1.423 2.516 2.84 3.778 4.256.045.051.09.103.148.135.13.065.272.065.401-.07.136-.137.15-.279.065-.408-.026-.04-.058-.071-.09-.104l-3.403-3.79c-.032-.039-.077-.058-.122-.084.013-.02.032-.032.045-.052.032 0 .058-.006.09-.006l.02-.007Zm-6.196-.582h-.233c.02-.09.032-.155.045-.226l1.339-6.7c.09-.466.285-.628.757-.628 1.934 0 3.867-.013 5.801-.013 1.882 0 3.137 1.184 3.189 2.995.058 1.875-1.604 3.925-3.59 4.404-.388.09-.782.142-1.164.149-2.05.02-4.094.013-6.144.02Z"/><path fill="url(#m)" d="M71.803 14.824c-.575-2.03-2.024-3.176-4.25-3.421-.478-.052-.976-.033-1.467-.033-1.669 0-3.338 0-5.013.013-.957 0-1.804.388-2.529 1.158-.478.504-.73 1.086-.853 1.707l-2.329 11.668c-.02.104-.039.214-.052.317-.11.964.57 1.72 1.553 1.733 1.086.007 2.121-.847 2.348-1.946.168-.815.33-1.63.491-2.445l.039-.2c1.074 0 2.108-.007 3.15 0 .064 0 .129.045.174.09.563.62 1.12 1.248 1.675 1.876.628.698 1.242 1.41 1.883 2.102.595.64 1.571.672 2.444.116 1.113-.711 1.462-2.096.731-2.936-.582-.667-1.177-1.32-1.766-1.98-.038-.038-.084-.07-.142-.122l.233-.143c2.872-1.662 4.45-4.837 3.674-7.547l.006-.007Zm-4.553 7.917c.679.756 1.358 1.52 2.037 2.276.375.42.382 1.01.02 1.546-.557.828-1.663.996-2.245.336-1.177-1.32-2.347-2.639-3.518-3.958-.116-.136-.252-.188-.453-.188-1.138.007-2.27.007-3.402.013-.336 0-.44.085-.504.42-.188.945-.369 1.89-.57 2.84-.207.977-1.345 1.604-2.14 1.184-.466-.253-.628-.68-.511-1.248.22-1.08.433-2.167.647-3.247l.543-2.704c.388-1.927.77-3.855 1.157-5.788.188-.925.725-1.624 1.656-2.025.298-.13.634-.2.932-.207 2.05-.02 4.1-.032 6.144-.02 2.561.02 4.45 2.012 4.333 4.522-.103 2.283-1.604 4.437-3.867 5.562-.013 0-.026.013-.04.02-.394.2-.458.394-.22.666Z"/><path fill="url(#n)" d="M54.902 13c-3.486.007-6.965.013-10.452.026h-.187a.365.365 0 0 0-.31.285c-.04.155 0 .284.161.323.071.02.149.013.22.013 1.559 0 3.111-.006 4.67-.013h.245c-.019.104-.038.188-.051.272L46.81 25.865c-.013.077-.032.149-.039.226-.013.175.084.246.246.259.162.013.291-.084.35-.252.025-.072.038-.15.051-.227.796-3.99 1.598-7.987 2.393-11.978.02-.084.032-.168.052-.259h.259c1.558 0 3.11-.006 4.67-.013.31 0 .484-.103.523-.316.039-.214-.084-.304-.407-.304h-.007Z"/><path fill="url(#o)" d="M56.992 12.981c.045-.899-.64-1.585-1.597-1.585-3.59 0-7.18.013-10.776.026-.161 0-.33.026-.498.065-.97.24-1.772 1.119-1.856 2.03-.084.965.576 1.702 1.559 1.708 1.08.007 2.166 0 3.253 0h.24c-.02.104-.04.181-.052.266-.68 3.402-1.359 6.804-2.038 10.212-.032.162-.064.323-.09.485-.188 1.184.815 2.044 2.037 1.747a2.493 2.493 0 0 0 1.856-1.928c.705-3.512 1.404-7.03 2.109-10.542.013-.078.032-.155.045-.24h.24c1.054 0 2.101 0 3.156-.013.226 0 .459-.032.685-.097.977-.29 1.682-1.164 1.727-2.114v-.02Zm-2.231 1.623c-1.21.007-2.42.007-3.629.013-.355 0-.446.078-.517.427-.369 1.837-.731 3.674-1.1 5.504-.368 1.837-.73 3.674-1.1 5.504-.193.964-1.325 1.598-2.12 1.184-.428-.22-.634-.595-.537-1.125.077-.453.174-.906.265-1.365.64-3.221 1.287-6.448 1.927-9.67.078-.375.007-.459-.375-.459-1.203 0-2.406.013-3.609 0-.75 0-1.222-.614-1.048-1.345.156-.66.835-1.229 1.514-1.268h.116c3.564-.006 7.134-.019 10.698-.025.756 0 1.229.569 1.093 1.293-.136.731-.828 1.313-1.572 1.32l-.006.012Z"/><path fill="#fff" d="M39.633 12.366h-2.665c-2.172.013-4.417.02-6.622.013-.77 0-1.462.57-1.604 1.326a1251.6 1251.6 0 0 1-2.173 10.898c-.078.375 0 .718.2.97.2.246.53.388.893.388h.013c2.283-.019 4.605-.019 6.849-.025h2.283c.136 0 .543 0 .615-.382.019-.116 0-.213-.059-.285-.077-.097-.22-.142-.446-.142l-9.094.02c-.2 0-.33-.033-.388-.104-.058-.071-.07-.207-.025-.414l1.009-5.064 5.044-.013h.175a.459.459 0 0 0 .42-.433.36.36 0 0 0-.084-.253c-.07-.07-.18-.11-.342-.11l-4.935.013h-.123l.944-4.74.02-.11c.019-.091.032-.182.058-.272.064-.272.245-.42.523-.434h.162l9.074-.019c.072 0 .143 0 .214-.013a.48.48 0 0 0 .4-.4.352.352 0 0 0-.064-.273.365.365 0 0 0-.258-.135l-.014-.007ZM19.532 12.405c-1.559 0-3.118 0-4.67.013h-1.17c-.091 0-.188 0-.285.02-.653.11-1.145.6-1.28 1.28l-2.336 11.7v.032c-.013.046-.026.084-.026.13a.366.366 0 0 0 .097.284.356.356 0 0 0 .26.097h.044c.169-.013.382-.103.453-.446l.822-4.12h1.086c1.378 0 2.749-.006 4.127-.013.122 0 .194.032.271.116.88.996 1.766 1.992 2.652 2.988l.88.997c.103.116.2.232.31.336.162.162.414.162.602 0 .2-.181.226-.408.064-.602l-.032-.032-.084.058.077-.064-3.408-3.803c.912-.078 1.3-.175 2.024-.498 1.87-.828 3.299-2.846 3.338-4.69.02-1.073-.324-2.011-1.003-2.697-.685-.698-1.681-1.086-2.807-1.086h-.006Zm2.949 3.447c.168 2.076-1.507 4.159-3.732 4.644a3.555 3.555 0 0 1-.724.084c-1.701.007-3.396.013-5.097.013H11.59l1.365-6.823c.078-.395.24-.524.64-.524h1.34c1.487-.007 2.98 0 4.462-.013 1.72 0 2.962 1.054 3.091 2.62h-.006ZM54.871 12.327l-10.452.026H44.212a.47.47 0 0 0-.388.356c-.032.123-.025.22.026.304.033.052.09.116.207.142.071.02.155.02.246.02l4.793-.013-2.42 12.114v.039c-.019.064-.032.129-.038.194-.007.103.013.187.071.252.058.071.149.11.272.116h.032c.194 0 .35-.123.414-.323.02-.065.032-.13.045-.194l2.4-12.024.032-.18 4.844-.014c.453 0 .589-.22.621-.4.02-.117 0-.214-.058-.285-.078-.097-.22-.143-.44-.143v.013ZM66.616 12.302c-1.403 0-2.813 0-4.217.006h-1.584c-.86 0-1.456.498-1.624 1.352L56.87 25.289v.045c-.019.046-.025.09-.032.13a.362.362 0 0 0 .13.33.373.373 0 0 0 .22.07.554.554 0 0 0 .174-.032c.226-.09.291-.271.323-.427.214-1.093.434-2.186.654-3.279l.168-.834h.944c1.436 0 2.865-.007 4.301-.013.104 0 .168.026.227.097 1.067 1.203 2.134 2.406 3.201 3.602l.582.66c.045.052.104.11.175.149.187.097.368.065.524-.09.226-.233.142-.434.07-.53-.019-.033-.044-.06-.07-.085l-.964-1.074c-.815-.905-1.63-1.817-2.445-2.723.66-.025 1.313-.187 1.999-.485 1.979-.88 3.428-2.994 3.363-4.928-.065-2.096-1.63-3.55-3.797-3.55v-.02Zm2.956 3.719c.058 1.83-1.585 3.835-3.512 4.3-.382.091-.776.143-1.145.143-1.513.013-3.052.013-4.547.02h-1.707l1.358-6.798c.084-.427.233-.55.66-.55h1.487c1.223-.006 2.445-.013 3.668-.013h.647c1.823 0 3.033 1.139 3.091 2.898ZM86.75 14.216c-1.04-1.261-2.6-1.953-4.41-1.953h-.026c-3.784.013-7.464 3.059-8.201 6.784-.362 1.824.026 3.538 1.086 4.819 1.042 1.268 2.62 1.96 4.437 1.96h.026c3.77-.013 7.431-3.053 8.175-6.785.362-1.83-.026-3.544-1.08-4.832l-.006.007Zm.279 4.799c-.66 3.305-3.907 6.002-7.244 6.015h-.026c-1.585 0-2.956-.608-3.868-1.707-.931-1.126-1.267-2.633-.95-4.237.653-3.298 3.906-5.989 7.256-5.995h.02c1.597 0 2.975.607 3.88 1.707.919 1.119 1.255 2.613.932 4.21v.007Z"/><path fill="#0D4751" d="M64.379 37.772c.55-.227.918-.712.99-1.288a1.735 1.735 0 0 0-1.269-1.856h15.006c7.793 0 15.166-6.662 16.434-14.856.647-4.191-.414-8.266-2.904-11.17-2.322-2.71-5.66-4.204-9.385-4.204H81.15a1.7 1.7 0 0 0-1.694 1.695 1.7 1.7 0 0 0 1.694 1.694h2.102c2.723 0 5.142 1.074 6.817 3.02 1.85 2.154 2.62 5.233 2.128 8.447-1.022 6.61-6.888 11.985-13.084 11.985h-17.8c.486-.517.971-1.035 1.443-1.54.42-.445.57-1.053.395-1.636a1.725 1.725 0 0 0-1.255-1.177 1.662 1.662 0 0 0-1.578.486 282.43 282.43 0 0 0-3.596 3.874h-3.428c-.815 0-1.468.556-1.636 1.313-.04-.026-.078-.065-.117-.091-1.339-.77-3.583-.453-6.675.944-.853.388-1.617.828-2.283 1.307a2.54 2.54 0 0 0-.064-.207c-.279-.77-1.08-2.044-3.7-2.005-.996.02-1.973.18-2.923.42.013-.013.025-.032.038-.045 3.842-1.1 6.804-2.652 9.055-4.747 2.969-2.762 1.701-4.612 1.242-5.11-1.119-1.222-3.014-1.19-5.194.078-1.313.763-2.373 1.85-3.311 2.807l-.304.31a84.684 84.684 0 0 0-3.37 3.622l-.11.13c-3.984 1.067-7.289 1.28-11.596 1.28l-9.876-.013c-2.723 0-5.149-1.073-6.818-3.02-1.85-2.154-2.619-5.233-2.127-8.454 1.022-6.61 6.888-11.984 13.084-11.984h48.967c.912 0 1.656-.731 1.688-1.637a1.717 1.717 0 0 0 1.32 1.624 4.18 4.18 0 0 1 1.901 1.028 4.221 4.221 0 0 1 1.17 2.038 1.72 1.72 0 0 0 1.682 1.325c.79 0 1.475-.53 1.675-1.3a4.307 4.307 0 0 1 1.249-2.102 4.361 4.361 0 0 1 1.856-1.009c.763-.194 1.3-.88 1.3-1.668 0-.79-.524-1.475-1.287-1.675a4.385 4.385 0 0 1-1.915-1.068 4.392 4.392 0 0 1-1.203-2.05A1.697 1.697 0 0 0 73.343 0h-.02c-.789.006-1.474.55-1.662 1.32A4.287 4.287 0 0 1 70.4 3.446a4.215 4.215 0 0 1-1.817.951 1.723 1.723 0 0 0-1.32 1.623 1.696 1.696 0 0 0-1.688-1.636H16.621C8.82 4.398 1.447 11.06.186 19.255c-.647 4.19.408 8.265 2.904 11.17 2.322 2.71 5.66 4.203 9.385 4.203h8c-.226.22-.394.498-.472.822a2.664 2.664 0 0 1-.789 1.338c-.4.363-.84.524-1.138.596a1.728 1.728 0 0 0 0 3.363c.31.077.77.245 1.19.647.485.459.666.995.737 1.28a1.731 1.731 0 0 0 3.357.032c.09-.355.304-.88.79-1.325.33-.304.73-.524 1.17-.634a1.722 1.722 0 0 0 1.293-1.669c0-.789-.53-1.475-1.293-1.675a2.779 2.779 0 0 1-1.21-.673 2.756 2.756 0 0 1-.756-1.293 1.683 1.683 0 0 0-.485-.796c3.829-.026 5.433-.258 7.431-.55l.336-.045c-.407.524-.815 1.054-1.229 1.591a1.63 1.63 0 0 0-.038 1.928c-.104.064-.2.142-.291.232a1.744 1.744 0 0 0-.447 1.67 1.646 1.646 0 0 0 1.184 1.163c2.309.608 5.032.563 7.658-.142.77-.207 1.772-.53 2.71-1.132v.02c.297.873 1.015 1.552 2.024 1.908.602.213 1.28.323 2.018.323 1.268 0 2.555-.31 3.764-.647a21.786 21.786 0 0 0 3.771-1.449c.097.227.233.453.433.667.537.575 1.294.873 2.251.873.259 0 .537-.02.847-.065.97-.136 1.863-.427 2.736-.718l.168-.058c2.09-.692 4.127-1.552 6.093-2.38l.084-.033.007-.025ZM52.58 35.754a2.57 2.57 0 0 0 .2-1.21c.163.052.33.084.505.084h.46c-.31.369-.628.783-.938 1.223-.078-.033-.149-.072-.227-.097Zm5.627-1.132h5.006l-.226.077c-1.914.809-3.894 1.643-5.905 2.303l-.414.142c-.278.09-.57.194-.86.278.013-.02.026-.032.039-.045.718-.931 1.532-1.837 2.36-2.755ZM35.52 37.474c-.951.175-1.928.24-2.872.181a53.82 53.82 0 0 1 2.322-.912c.11.285.297.537.55.725v.006Z"/><path fill="#0DB7B7" d="M68.737 7.166a4.775 4.775 0 0 1 2.186 1.184 4.855 4.855 0 0 1 1.352 2.348c.117.491.556.84 1.074.847.504 0 .944-.343 1.073-.828a4.976 4.976 0 0 1 1.43-2.406 4.994 4.994 0 0 1 2.121-1.151c.492-.123.828-.563.828-1.067 0-.505-.336-.945-.821-1.074a4.979 4.979 0 0 1-3.558-3.564 1.076 1.076 0 0 0-1.08-.828c-.504 0-.944.356-1.06.848a4.883 4.883 0 0 1-1.45 2.444 4.828 4.828 0 0 1-2.088 1.093 1.106 1.106 0 0 0-.847 1.074c0 .511.349.95.847 1.074l-.007.006ZM25.158 37.998a3.373 3.373 0 0 1-2.413-2.412c-.116-.453-.517-.777-1.08-.822-.504 0-.944.35-1.067.841a3.297 3.297 0 0 1-.976 1.65 3.298 3.298 0 0 1-1.41.737 1.1 1.1 0 0 0-.848 1.073c0 .511.35.951.848 1.074.388.09.957.304 1.474.802.602.569.828 1.235.912 1.584.117.492.556.841 1.074.848a1.1 1.1 0 0 0 1.067-.828c.116-.44.375-1.08.97-1.63.401-.369.9-.64 1.436-.783a1.107 1.107 0 0 0 0-2.14l.013.006Z"/><path fill="#1296A0" d="M64.139 37.196a.989.989 0 0 0 .614-.796 1.102 1.102 0 0 0-.44-.996 1.1 1.1 0 0 0-1.08-.136c-1.927.815-3.919 1.656-5.95 2.322l-.414.136c-.757.252-1.61.543-2.367.537v-.007c.032-.051.058-.097.078-.123a9.45 9.45 0 0 1 .776-1.144c.789-1.022 1.681-2.005 2.58-2.995h21.17c7.502.007 14.597-6.422 15.82-14.326.62-4.016-.389-7.903-2.762-10.672-2.206-2.567-5.369-3.984-8.913-3.984H81.15c-.588 0-1.074.479-1.074 1.074 0 .595.479 1.074 1.074 1.074h2.102c2.91 0 5.498 1.15 7.29 3.24 1.965 2.29 2.793 5.556 2.27 8.951-1.068 6.901-7.212 12.515-13.7 12.515H59.89c.821-.88 1.63-1.753 2.412-2.587.265-.278.356-.666.246-1.028a1.087 1.087 0 0 0-.796-.75 1.022 1.022 0 0 0-.983.303 308.598 308.598 0 0 0-3.777 4.069h-3.706a1.05 1.05 0 0 0-1.054 1.067 1.05 1.05 0 0 0 1.054 1.067h1.811c-.226.259-.433.505-.64.744-.485.576-1.035 1.242-1.5 1.979a1.194 1.194 0 0 0-.298-.272 1.034 1.034 0 0 0-1.042.007 18.64 18.64 0 0 1-6.234 2.231c-.498.084-1.087.155-1.656.104-.304-.033-.55-.09-.712-.175-.103-.058-.18-.097-.226-.13.013-.064.052-.161.103-.258a23.59 23.59 0 0 0 1.792-.026c2.037-.11 3.848-.478 5.394-1.08 1.442-.563 2.205-1.514 2.09-2.594-.072-.672-.395-1.196-.939-1.507-1.442-.827-4.113.072-6.105.977-1.268.576-2.316 1.255-3.124 2.03a2.275 2.275 0 0 0-.071-1.286c-.266-.75-1.016-1.643-3.105-1.591-1.61.032-3.182.446-4.747 1.009a84.737 84.737 0 0 1 1.507-1.805c3.835-1.073 6.772-2.6 8.983-4.656 1.747-1.624 2.187-3.17 1.21-4.237-.906-.983-2.516-.912-4.424.194-1.242.725-2.225 1.733-3.176 2.704l-.304.31a83.062 83.062 0 0 0-3.343 3.59l-.233.271c-4.133 1.132-7.522 1.352-11.94 1.352l-9.876-.013c-2.91 0-5.497-1.151-7.289-3.24-1.966-2.29-2.794-5.556-2.27-8.951C3.989 12.785 10.133 7.171 16.62 7.171h48.968c.588 0 1.073-.478 1.073-1.073s-.478-1.074-1.073-1.074H16.62C9.117 5.02 2.015 11.448.8 19.351c-.622 4.017.387 7.904 2.761 10.672 2.206 2.574 5.368 3.984 8.913 3.984h9.695c4.294 0 5.944-.24 8.033-.543l.343-.052c.569-.084 1.06-.162 1.558-.259-.744.932-1.474 1.882-2.218 2.846-.278.362-.272.867.02 1.248.29.389.788.537 1.209.37l1.086-.447c1.087-.453 2.193-.906 3.305-1.261-.116.55.194 1.086.738 1.248.472.136.95.259 1.422.375-2.29.847-4.954 1.009-7.166.427a1.036 1.036 0 0 0-1.002.271 1.126 1.126 0 0 0-.285 1.061c.097.356.375.628.744.725 2.205.582 4.812.53 7.34-.143.965-.258 2.323-.711 3.383-1.714-.051.343-.019.68.084 1.003.233.692.815 1.229 1.643 1.52.544.194 1.139.284 1.811.284 1.19 0 2.432-.304 3.596-.627 1.5-.42 3.008-1.041 4.392-1.792-.02.401.084.815.433 1.197.414.446 1.016.673 1.798.673.272 0 .53-.026.764-.059.911-.122 1.778-.414 2.625-.692l.169-.058c2.063-.679 4.087-1.54 6.04-2.367l.085-.032.019-.013Zm-18.207-1.242c.912-.427 1.94-.763 3.06-1.003.206-.045.452-.064.666-.064h.168c-.188.123-.447.22-.602.278-.588.22-1.254.407-2.037.575-.407.084-.828.156-1.255.214Zm-8.136-.595c.272-.039.543-.065.808-.084.738-.04 1.216.09 1.3.2 0 0 .02.058-.026.214-.013.032-.019.064-.032.097a28.105 28.105 0 0 1-2.05-.427Zm.821-6.397a78.257 78.257 0 0 1 1.889-1.934c.66-.646 1.455-1.364 2.393-1.798.614-.284.963-.342 1.145-.342.045 0 .077 0 .103.012-.187.511-1.559 1.747-2.639 2.458a22.169 22.169 0 0 1-2.897 1.604h.006Z"/><path fill="#fff" d="M77.819 5.627a5.632 5.632 0 0 1-2.464-1.371 5.64 5.64 0 0 1-1.546-2.633.47.47 0 0 0-.472-.362.484.484 0 0 0-.466.369c-.149.614-.556 1.791-1.636 2.762a5.457 5.457 0 0 1-2.355 1.235.484.484 0 0 0 0 .938c.647.155 1.598.51 2.471 1.339a5.537 5.537 0 0 1 1.526 2.651.484.484 0 0 0 .466.369c.22 0 .414-.149.466-.362a5.55 5.55 0 0 1 1.61-2.704 5.594 5.594 0 0 1 2.393-1.3.478.478 0 0 0 .362-.465.478.478 0 0 0-.362-.466h.007Zm-3.047 1.52a6.403 6.403 0 0 0-1.416 1.895 6.361 6.361 0 0 0-2.936-2.95 6.267 6.267 0 0 0 2.936-2.962 6.607 6.607 0 0 0 1.332 1.818c.537.517 1.106.88 1.63 1.138a6.358 6.358 0 0 0-1.546 1.06ZM25.004 38.6a4.042 4.042 0 0 1-1.753-.977 4.005 4.005 0 0 1-1.1-1.876c-.058-.214-.245-.336-.472-.362a.484.484 0 0 0-.465.368 3.92 3.92 0 0 1-1.165 1.967 3.84 3.84 0 0 1-1.681.88.477.477 0 0 0-.369.465c0 .22.155.414.369.472.459.11 1.138.362 1.759.957.711.68.99 1.475 1.087 1.889a.484.484 0 0 0 .465.368c.22 0 .414-.148.466-.362a3.966 3.966 0 0 1 1.151-1.927 3.968 3.968 0 0 1 1.708-.925.478.478 0 0 0 .362-.466.478.478 0 0 0-.362-.465v-.007Zm-2.361 1.15a4.78 4.78 0 0 0-.95 1.21 4.934 4.934 0 0 0-.9-1.17 4.81 4.81 0 0 0-.99-.725c.317-.175.621-.388.887-.627.4-.363.737-.796.996-1.268.213.381.504.776.892 1.151a4.8 4.8 0 0 0 1.01.744c-.344.188-.667.42-.952.686h.007Z"/><path fill="#fff" d="M51.922 36.995a19.309 19.309 0 0 1-6.442 2.31c-.543.09-1.184.167-1.818.109-.388-.039-.698-.116-.938-.246-.459-.239-.53-.368-.543-.4-.11-.33.078-.783.317-1.074.02-.026.045-.046.065-.072l.032-.032c.692.026 1.384.026 2.05-.013 1.973-.11 3.72-.459 5.2-1.035.55-.213 1.818-.834 1.702-1.953-.052-.472-.26-.821-.628-1.035-1.32-.763-4.314.447-5.536 1.003-1.313.595-2.38 1.306-3.157 2.115-.362-.02-.73-.052-1.093-.09.31-.596.389-1.159.214-1.644-.285-.795-1.145-1.203-2.503-1.177-2.31.045-4.625.957-6.7 1.811a114.43 114.43 0 0 1 3.09-3.777c3.823-1.048 6.74-2.542 8.913-4.566.693-.64 2.187-2.25 1.178-3.357-.977-1.067-2.879-.136-3.655.31-1.164.68-2.121 1.656-3.046 2.6l-.304.311a81.516 81.516 0 0 0-3.318 3.564c-.078.084-.149.174-.226.265l-.123.149C30.37 32.267 26.898 32.5 22.358 32.5H12.48c-3.091-.006-5.853-1.235-7.76-3.467-2.084-2.431-2.963-5.879-2.413-9.449C3.42 12.392 9.843 6.539 16.628 6.539h48.966a.447.447 0 0 0 0-.893H16.621c-7.212 0-14.029 6.19-15.206 13.802-.595 3.835.362 7.541 2.62 10.174 2.082 2.432 5.083 3.77 8.44 3.77h9.695c4.25 0 5.88-.239 7.942-.536l.343-.052a36.794 36.794 0 0 0 3.247-.62c-1.119 1.357-2.205 2.76-3.318 4.197-.11.142-.097.336.026.491.123.162.317.227.479.162.355-.142.718-.291 1.08-.44 2.134-.88 4.34-1.798 6.603-1.934.427-.026 1.462-.038 1.83.44.15.194.175.46.072.783a2.576 2.576 0 0 1-.285.588 26.131 26.131 0 0 1-3.525-.77c-.265-.077-.472.091-.53.304-.065.214.02.473.29.55a28.11 28.11 0 0 0 3.034.699 5.44 5.44 0 0 1-1.423.802c-2.438.938-5.303 1.125-7.677.498a.435.435 0 0 0-.414.103.48.48 0 0 0-.123.46.42.42 0 0 0 .304.29c2.102.557 4.592.505 7.018-.135.99-.265 2.406-.744 3.389-1.85.317.039.653.078 1.022.11-.272.485-.343.99-.194 1.43.168.504.62.905 1.261 1.138.505.18 1.048.252 1.604.252 1.138 0 2.335-.298 3.434-.602a20.946 20.946 0 0 0 4.702-1.972.403.403 0 0 0 .214-.356.49.49 0 0 0-.233-.407.436.436 0 0 0-.427 0l.007-.02Zm-8.434-.265c.53-.433 1.157-.828 1.869-1.184 1.035-.517 2.218-.925 3.512-1.203.465-.097 1.5-.155 1.753.175.084.11.07.259-.033.46-.207.394-.692.607-1.138.769a14.94 14.94 0 0 1-2.128.601 18.572 18.572 0 0 1-3.816.382h-.02Zm1.306-11.94c.026.938-2.309 2.678-2.936 3.092-1.624 1.074-3.486 1.966-5.53 2.671 1.332-1.5 2.561-2.8 3.745-3.965.692-.685 1.545-1.442 2.567-1.92.576-.266 1.048-.401 1.404-.401.188 0 .343.038.472.11.181.103.272.239.278.414Z"/><path fill="#fff" d="M91.691 9.41c-2.082-2.432-5.083-3.77-8.44-3.77h-2.102a.447.447 0 0 0 0 .892h2.102c3.091 0 5.853 1.23 7.761 3.454 2.083 2.432 2.962 5.873 2.413 9.45-1.113 7.192-7.529 13.045-14.313 13.045h-4.573s-.039 0-.039.006H58.473a349.914 349.914 0 0 1 3.376-3.648.424.424 0 0 0 .104-.42.488.488 0 0 0-.343-.33.392.392 0 0 0-.388.13 252.904 252.904 0 0 0-3.952 4.268h-3.978c-.284 0-.433.22-.433.44s.149.44.433.44h3.182c-.588.666-1.086 1.229-1.539 1.772-.53.627-1.138 1.358-1.604 2.16-.278.479-.802 1.371-.213 2.005.343.369.853.472 1.338.472.24 0 .473-.026.68-.051.86-.117 1.7-.395 2.515-.667L57.82 39c2.044-.672 4.055-1.526 6.002-2.354l.077-.032a.375.375 0 0 0 .24-.298.476.476 0 0 0-.194-.42.464.464 0 0 0-.466-.059c-1.94.822-3.945 1.67-5.996 2.342l-.407.136c-.886.297-1.811.601-2.69.569-.266-.013-.576-.052-.654-.252-.065-.175.13-.505.252-.699.026-.039.046-.078.065-.11.22-.382.479-.77.821-1.216.86-1.119 1.837-2.186 2.782-3.214l.019-.02h21.447c7.205.007 14.029-6.183 15.206-13.795.588-3.836-.363-7.542-2.62-10.174l-.013.006Z"/></g></g><defs><linearGradient id="c" x1="33.268" x2="33.268" y1="13.032" y2="26.427" gradientUnits="userSpaceOnUse"><stop stop-color="#F7B53C"/><stop offset=".55" stop-color="#F7B53C"/><stop offset="1" stop-color="#EE6817"/></linearGradient><linearGradient id="d" x1="16.581" x2="16.581" y1="11.474" y2="28.064" gradientUnits="userSpaceOnUse"><stop stop-color="#F7B53C"/><stop offset=".55" stop-color="#F7B53C"/><stop offset="1" stop-color="#EE6817"/></linearGradient><linearGradient id="e" x1="17.183" x2="17.183" y1="14.682" y2="20.257" gradientUnits="userSpaceOnUse"><stop stop-color="#F7B53C"/><stop offset=".55" stop-color="#F7B53C"/><stop offset="1" stop-color="#EE6817"/></linearGradient><linearGradient id="f" x1="81.02" x2="81.02" y1="11.332" y2="27.908" gradientUnits="userSpaceOnUse"><stop stop-color="#F7B53C"/><stop offset=".55" stop-color="#F7B53C"/><stop offset="1" stop-color="#EE6817"/></linearGradient><linearGradient id="g" x1="16.581" x2="16.581" y1="13.078" y2="26.434" gradientUnits="userSpaceOnUse"><stop stop-color="#F7B53C"/><stop offset=".55" stop-color="#F7B53C"/><stop offset="1" stop-color="#EE6817"/></linearGradient><linearGradient id="h" x1="33.268" x2="33.268" y1="11.429" y2="28.025" gradientUnits="userSpaceOnUse"><stop stop-color="#F7B53C"/><stop offset=".55" stop-color="#F7B53C"/><stop offset="1" stop-color="#EE6817"/></linearGradient><linearGradient id="i" x1="64.255" x2="64.255" y1="14.579" y2="20.154" gradientUnits="userSpaceOnUse"><stop stop-color="#F7B53C"/><stop offset=".55" stop-color="#F7B53C"/><stop offset="1" stop-color="#EE6817"/></linearGradient><linearGradient id="j" x1="81.013" x2="81.013" y1="14.54" y2="24.694" gradientUnits="userSpaceOnUse"><stop stop-color="#F7B53C"/><stop offset=".55" stop-color="#F7B53C"/><stop offset="1" stop-color="#EE6817"/></linearGradient><linearGradient id="k" x1="81.006" x2="81.006" y1="12.935" y2="26.298" gradientUnits="userSpaceOnUse"><stop stop-color="#F7B53C"/><stop offset=".55" stop-color="#F7B53C"/><stop offset="1" stop-color="#EE6817"/></linearGradient><linearGradient id="l" x1="63.654" x2="63.654" y1="12.974" y2="26.33" gradientUnits="userSpaceOnUse"><stop stop-color="#F7B53C"/><stop offset=".55" stop-color="#F7B53C"/><stop offset="1" stop-color="#EE6817"/></linearGradient><linearGradient id="m" x1="63.654" x2="63.654" y1="11.364" y2="27.953" gradientUnits="userSpaceOnUse"><stop stop-color="#F7B53C"/><stop offset=".55" stop-color="#F7B53C"/><stop offset="1" stop-color="#EE6817"/></linearGradient><linearGradient id="n" x1="49.625" x2="49.625" y1="13.001" y2="26.35" gradientUnits="userSpaceOnUse"><stop stop-color="#F7B53C"/><stop offset=".55" stop-color="#F7B53C"/><stop offset="1" stop-color="#EE6817"/></linearGradient><linearGradient id="o" x1="49.625" x2="49.625" y1="11.396" y2="27.98" gradientUnits="userSpaceOnUse"><stop stop-color="#F7B53C"/><stop offset=".55" stop-color="#F7B53C"/><stop offset="1" stop-color="#EE6817"/></linearGradient><clipPath id="a"><path fill="#fff" d="M0 0h96v44H0z"/></clipPath><clipPath id="b"><path fill="#fff" d="M0 0h96v44H0z"/></clipPath></defs></svg>
