<svg xmlns="http://www.w3.org/2000/svg" width="136" height="50" fill="none"><path fill="#FFFDF3" d="M134.559 13.432v.47l-.375 29.853h-4.562l-.516 4.086H6.798l.033-4.094H2.015l-.574-29.854v-.47h4.92V8.874H36.55v.47L7.334 10.36l.516 5.018H2.335l.71 8.035 5.941 5.03v.638l-6.311 4.656.053 8.054h5.233v.47l-.254 4.094h120.604l-.293-3.616v-.47h5.315V33.66l-6.34-4.58v-.626l5.962-5.05.986-8.019h-5.909l.344-5.026h-30.16l-.224-1.015v-.47h31.632v.47l-.266 4.087h5.201M37.095 39.978a3 3 0 0 1-.527-.608 1.3 1.3 0 0 1-.226-.725V18.693q0-.414.226-.77c.15-.237 1.329-.599 1.329-.599v-.675h-9.632v.675s1.162.229 1.279.436c.117.208.142-.035.075.183l-4.264 10.85-4.314-10.91c-.1-.217-.084.03.05-.167.133-.198 1.304-.392 1.304-.392v-.675h-9.632v.675s1.187.224 1.355.421q.25.297.251.534v20.277q0 .297-.251.637a8 8 0 0 1-.552.666 9 9 0 0 1-.803.711v.675h8.228v-.675a4.6 4.6 0 0 1-.803-.592 3.6 3.6 0 0 1-.552-.622 1.3 1.3 0 0 1-.251-.77V26.43l5.92 13.31 5.97-13.34v12.51q0 .237-.251.533a3.8 3.8 0 0 1-.552.534 14 14 0 0 1-.753.592v.675h8.177v-.675a4.6 4.6 0 0 1-.803-.592zm47.473-18.891v-.675l-1.003-3.913H68.063v.675s1.137.22 1.304.407q.25.282.251.548v20.514q0 .326-.251.651a6 6 0 0 1-.552.623q-.351.326-.752.651v.675h8.177v-.675a4.6 4.6 0 0 1-.803-.592 3 3 0 0 1-.527-.608 1.25 1.25 0 0 1-.226-.696v-7.174h4.917q.552 0 1.053.148.501.15.903.326.451.207.853.445v-4.833a7.5 7.5 0 0 1-.953.474 6 6 0 0 1-.903.311 3.7 3.7 0 0 1-.953.134h-4.917V19.49h6.472q.702 0 1.33.148.627.148 1.079.326c.317.12 1.003 1.12 1.003 1.12zm12.912-4.529h-8.328v.675s1.137.294 1.304.51q.25.328.251.652v20.277q0 .387-.251.712a4.3 4.3 0 0 1-.552.593 6 6 0 0 1-.752.593v.674h8.328v-.675a3.7 3.7 0 0 1-.803-.562 3 3 0 0 1-.527-.623 1.4 1.4 0 0 1-.226-.771V18.336q0-.384.226-.711c.151-.218 1.329-.392 1.329-.392v-.675zm17.424 24.687h8.227v-.675c-.25-.163-1.527-.827-1.729-1.692-.057-.246-5.44-20.996-5.44-20.996s1.225.074 1.375-.153c.151-.227 1.38-.645 1.38-.645v-.675h-12.442v.675s1.187.417 1.355.645c.167.227 1.183.447 1.183.447-4.382 20.614-5.189 20.538-5.257 20.702-.19.885-1.427 1.534-1.695 1.692v.675h8.177v-.675a6.4 6.4 0 0 1-.803-.681 3.4 3.4 0 0 1-.527-.667q-.226-.37-.126-.727l.552-2.43h6.672q.1.386.201.77.1.327.201.757.1.43.201.844.1.416-.125.8a3.3 3.3 0 0 1-.527.682 6 6 0 0 1-.853.651zm-5.017-8.175 2.609-13.34 2.609 13.34zM63.7 40.57v.675h-8.227v-.675q.5-.325.853-.651.301-.297.527-.682a1.04 1.04 0 0 0 .125-.8q-.1-.415-.201-.844a12 12 0 0 0-.201-.757q-.101-.385-.201-.77h-6.672l-.552 2.43q-.1.356.126.727.225.371.527.667.351.356.803.681v.675H42.43v-.675c.268-.158 1.505-.807 1.695-1.692.068-.164.875-.088 5.257-20.702 0 0-1.016-.22-1.182-.447-.168-.227-1.355-.645-1.355-.645v-.675h12.442v.675s-1.229.417-1.38.645c-.15.227-1.375.152-1.375.152s5.383 20.751 5.44 20.997c.202.864 1.479 1.53 1.729 1.692zm-8.027-7.5-2.609-13.34-2.609 13.34z"/><path fill="#fff" d="M80.572 6.338c1 .768 1.337 1.843.879 2.807-.629 1.32-2.45 1.955-4.023 1.416l-1.535-.649s.071 2.04 1.761 3.169v.52h-5.231v-.52c1.691-1.13 1.762-3.169 1.762-3.169l-1.506.639c-1.605.545-3.422-.082-4.052-1.405-.468-.984-.14-2.034.888-2.815l5.524-4.478 5.523 4.478.009.008zm8.159 6.517h2.598V4.78h2.46V3.182h-7.518v1.599h2.46zM59.153 3.18h-2.598v9.674h6.957v-1.598h-4.358zM47.188 7.35c-1.179-.46-2.198-.854-2.198-1.71 0-.54.494-1.084 1.595-1.084.599 0 1.441.163 2.231.881l1.269-.72v-.52c-1.061-.834-2.263-1.24-3.662-1.24-2.646 0-4.03 1.44-4.03 2.863 0 1.964 1.969 2.688 3.551 3.272 1.067.393 1.91.703 1.91 1.393 0 .48-.433.996-1.648.996a4.03 4.03 0 0 1-2.534-.902l-1.273 1.258v.52s2.493.724 3.951.724c2.531 0 4.103-1.069 4.103-2.79 0-1.673-1.733-2.347-3.264-2.94z"/><path fill="url(#a)" d="M80.572 6.858c1 .769 1.337 1.844.879 2.808-.629 1.32-2.45 1.954-4.023 1.415l-1.535-.649s.071 2.04 1.761 3.169h-5.231c1.691-1.129 1.762-3.169 1.762-3.169l-1.506.64c-1.605.545-3.422-.083-4.052-1.405-.468-.985-.14-2.035.888-2.815l5.524-4.479 5.523 4.479.009.007zm8.159 6.517h2.598V5.301h2.46V3.703h-7.518V5.3h2.46zM59.153 3.702h-2.598v9.673h6.957v-1.598h-4.358zM47.188 7.87c-1.179-.459-2.198-.853-2.198-1.71 0-.54.494-1.083 1.595-1.083.599 0 1.441.163 2.231.88l1.269-1.24c-1.061-.834-2.263-1.24-3.662-1.24-2.646 0-4.03 1.44-4.03 2.864 0 1.964 1.969 2.688 3.551 3.271 1.067.394 1.91.704 1.91 1.394 0 .48-.433.995-1.648.995a4.03 4.03 0 0 1-2.534-.902l-1.273 1.258c1.071.825 2.399 1.244 3.951 1.244 2.531 0 4.103-1.069 4.103-2.789 0-1.674-1.733-2.347-3.264-2.94z"/><path fill="url(#b)" d="M129.626 13.9V9.346H97.994v1.324h30.029v4.717h4.933v8.645l-5.963 5.05 5.963 5.05v8.609h-4.938v4.085H7.965v-4.564H3.044v-8.15l5.941-5.03-5.941-5.03v-8.673h4.921v-4.709h28.586V9.346H6.361v4.548h-4.92v29.853h4.92v4.402h123.261v-3.924h4.937V13.901z"/><path fill="url(#c)" d="M37.95 41.245h-8.177q.4-.296.753-.592.3-.238.552-.534.25-.296.251-.533v-12.51l-5.97 13.34-5.92-13.31V39.26q0 .416.251.77.25.357.552.623.351.326.803.592h-8.228q.451-.356.803-.71.3-.327.552-.667.25-.341.251-.637V18.954q0-.238-.251-.534a4 4 0 0 0-.552-.533 6 6 0 0 0-.803-.563h9.632a4.5 4.5 0 0 0-.803.533 2.4 2.4 0 0 0-.502.534.6.6 0 0 0-.05.622l4.314 10.91 4.264-10.85a.78.78 0 0 0-.075-.638 1.9 1.9 0 0 0-.477-.548 6 6 0 0 0-.803-.563h9.632a6 6 0 0 0-.803.622 3.7 3.7 0 0 0-.527.652q-.225.357-.226.77V39.32q0 .387.226.726.225.341.527.608.352.326.804.592m45.667-20.602a8 8 0 0 0-1.079-.326 5.8 5.8 0 0 0-1.33-.148h-6.472v9.012h4.917q.451 0 .953-.134.501-.133.903-.31.501-.208.953-.475v4.832a9 9 0 0 0-.853-.444 8 8 0 0 0-.903-.326 3.7 3.7 0 0 0-1.053-.148h-4.917v7.174q0 .356.226.696.226.341.527.608.35.325.803.592h-8.177q.4-.325.752-.652a6 6 0 0 0 .552-.622q.25-.325.251-.652V18.807q0-.266-.251-.549a4.3 4.3 0 0 0-.552-.518 8 8 0 0 0-.752-.563h15.502l1.003 3.913a9 9 0 0 0-1.003-.445zm13.112-2.906a2.6 2.6 0 0 0-.527.563 1.22 1.22 0 0 0-.226.711v20.277q0 .415.226.771t.527.623q.351.326.803.562h-8.328q.4-.266.752-.592.3-.267.552-.593.25-.325.251-.712V19.07q0-.325-.251-.651a4.3 4.3 0 0 0-.552-.593 6 6 0 0 0-.752-.593h8.328a3.5 3.5 0 0 0-.803.504m18.228 23.508q.5-.325.853-.651.301-.297.527-.682a1.04 1.04 0 0 0 .125-.8q-.1-.415-.201-.844a12 12 0 0 0-.201-.757q-.101-.385-.201-.77h-6.672l-.552 2.43q-.1.356.126.727.225.371.527.667.351.356.803.681h-8.177q.402-.237.703-.503.251-.238.476-.49.226-.25.326-.488.05-.118.226-1.038.175-.919.502-2.371.325-1.453.702-3.276.376-1.824.778-3.72.401-1.898.777-3.706t.703-3.247q.326-1.437.501-2.341t.226-.994q.1-.326-.15-.666a5.3 5.3 0 0 0-.552-.637 13 13 0 0 0-.803-.682h12.442a8 8 0 0 0-.853.681 4 4 0 0 0-.527.638q-.226.341-.125.607 0 .059.201.949.2.89.502 2.297a598 598 0 0 1 1.43 6.908q.376 1.882.752 3.69t.702 3.261q.326 1.454.527 2.401.2.95.251 1.067.1.267.351.563.25.297.502.533.3.298.702.563h-8.229m.2-7.5-2.609-13.34-2.609 13.34zm-58.78 6.849a6 6 0 0 1-.853.651h8.227a4.7 4.7 0 0 1-.702-.563 6 6 0 0 1-.502-.533 1.9 1.9 0 0 1-.351-.563q-.051-.118-.251-1.067-.201-.948-.527-2.4-.327-1.453-.702-3.262a431 431 0 0 1-.752-3.69 482 482 0 0 0-.753-3.691 714 714 0 0 0-.677-3.217q-.301-1.407-.502-2.297t-.201-.949q-.1-.267.125-.607.226-.341.527-.637a8 8 0 0 1 .853-.682H46.894q.451.356.803.681.3.297.552.638.25.341.15.666-.05.09-.226.994a78 78 0 0 1-.502 2.341q-.326 1.439-.703 3.247t-.777 3.705a731 731 0 0 0-.778 3.72 201 201 0 0 1-.702 3.277q-.327 1.453-.502 2.37-.177.92-.226 1.039a1.8 1.8 0 0 1-.326.489 8 8 0 0 1-.476.489 4.5 4.5 0 0 1-.703.503h8.177a6.4 6.4 0 0 1-.803-.681 3.4 3.4 0 0 1-.527-.667q-.227-.37-.126-.727l.552-2.43h6.672q.1.386.201.77.1.327.201.757.1.43.201.844.1.416-.125.8a3.3 3.3 0 0 1-.527.681zm-5.869-6.849 2.609-13.34 2.609 13.34z"/><defs><linearGradient id="a" x1="68.091" x2="68.091" y1="2.372" y2="13.6" gradientUnits="userSpaceOnUse"><stop stop-color="#E2E0DE"/><stop offset=".129" stop-color="#DDDBD9"/><stop offset=".237" stop-color="#D4D3D1"/><stop offset=".319" stop-color="#C9C8C6"/><stop offset=".46" stop-color="#ADABAA"/><stop offset=".506" stop-color="#A3A1A0"/><stop offset=".562" stop-color="#9F9B98"/><stop offset=".739" stop-color="#968F87"/><stop offset=".869" stop-color="#938B81"/><stop offset="1" stop-color="#989088"/></linearGradient><linearGradient id="b" x1="68" x2="68" y1="9.345" y2="48.148" gradientUnits="userSpaceOnUse"><stop stop-color="#C78651"/><stop offset=".172" stop-color="#D3915F"/><stop offset=".361" stop-color="#BD8152"/><stop offset=".569" stop-color="#A26D41"/><stop offset=".72" stop-color="#9C673B"/><stop offset="1" stop-color="#996439"/></linearGradient><linearGradient id="c" x1="68" x2="68" y1="17.085" y2="41.245" gradientUnits="userSpaceOnUse"><stop stop-color="#DF944D"/><stop offset=".071" stop-color="#DB9352"/><stop offset=".278" stop-color="#D3915F"/><stop offset=".417" stop-color="#BD8152"/><stop offset=".569" stop-color="#A26D41"/><stop offset=".631" stop-color="#9C673B"/><stop offset=".745" stop-color="#996439"/><stop offset="1" stop-color="#BA7941"/></linearGradient></defs></svg>
