<svg width="243" height="24" viewBox="0 0 243 24" fill="none" xmlns="http://www.w3.org/2000/svg">
<path fill-rule="evenodd" clip-rule="evenodd" d="M116.083 0C117.089 0 118.025 0.513989 118.567 1.36232C119.107 2.21139 119.177 3.27772 118.752 4.19011L109.514 24H100.687L103.488 17.9998H99.0739L96.2751 24H87.4462L97.448 2.55088C98.1749 0.994868 99.7361 0 101.453 0H116.083ZM109.867 4.31826C109.899 4.25051 109.893 4.17021 109.853 4.10687C109.814 4.04281 109.744 4.00453 109.668 4.00453L105.983 3.99204C105.754 3.9913 105.544 4.12383 105.446 4.33224L101.075 13.7007C101.044 13.7692 101.048 13.8495 101.088 13.9128C101.129 13.9769 101.199 14.0151 101.275 14.0151H104.971C105.199 14.0151 105.408 13.8826 105.504 13.6749L109.867 4.31826ZM135.631 24L146.823 0H155.65L150.655 10.7094C150.624 10.7779 150.629 10.8582 150.67 10.9215C150.711 10.9856 150.781 11.0239 150.857 11.0239H154.547C154.777 11.0239 154.984 10.8913 155.082 10.6837L160.063 0H168.891L157.699 24H148.872L152.903 15.3539C152.936 15.2854 152.931 15.2052 152.89 15.1419C152.849 15.0778 152.779 15.0395 152.703 15.0395H149.013C148.783 15.0395 148.576 15.172 148.478 15.3797L144.459 24H135.631ZM142.757 4.00453L136.112 4.01779L126.786 24H117.957L127.287 4.01482L120.665 4.00453L122.522 0H144.614L142.757 4.00453ZM180.526 24H160.668L171.859 0H180.688L171.351 20.0219H182.381L180.526 24ZM222.468 9.78822L215.842 24H207.015L218.206 0H227.033V14.1948L233.653 0H242.481L231.289 24H222.468V9.78822ZM68.423 0L57.2316 24H48.4063L59.5994 0H68.423ZM205.259 21.4484C204.532 23.0051 202.971 24 201.254 24H186.6C185.594 24 184.656 23.486 184.116 22.6369C183.576 21.7878 183.506 20.7215 183.931 19.8091L191.978 2.55088C192.705 0.994868 194.266 0 195.983 0H210.637C211.643 0 212.581 0.513989 213.121 1.36232C213.661 2.21139 213.731 3.27772 213.306 4.19011L205.259 21.4484ZM200.509 3.99204C200.281 3.99204 200.072 4.12457 199.976 4.33224L192.806 19.7075C192.775 19.776 192.779 19.8563 192.819 19.9196C192.86 19.9837 192.93 20.0219 193.006 20.0219H196.721C196.95 20.0219 197.157 19.8894 197.255 19.6817L204.425 4.30648C204.456 4.238 204.451 4.15771 204.41 4.09438C204.369 4.03031 204.299 3.99204 204.223 3.99204H200.509ZM35.9258 15.9997L32.1966 24H23.3695L34.5607 0H52.0097C53.016 0 53.9538 0.513989 54.494 1.36232C55.0341 2.21139 55.1044 3.27772 54.6789 4.19011L50.3615 13.4489C49.6364 15.0049 48.0752 15.9997 46.3586 15.9997H35.9258ZM41.8969 4.00013C41.6694 4.00013 41.4603 4.13268 41.3641 4.33961L37.9384 11.6852C37.9069 11.7537 37.9124 11.8339 37.9531 11.8973C37.992 11.9613 38.0623 11.9996 38.1382 11.9996H41.8358C42.0652 11.9996 42.2724 11.8671 42.3704 11.6594L45.7944 4.31381C45.8277 4.24532 45.8221 4.16582 45.7814 4.10175C45.7407 4.03842 45.6705 4.00013 45.5947 4.00013H41.8969ZM21.5658 21.4484C20.8389 23.0051 19.2777 24 17.5611 24H2.9459C1.93777 24 1.00179 23.4853 0.459798 22.6362C-0.0803401 21.7871 -0.148781 20.7201 0.276671 19.8077L2.05432 15.9997H10.8816L9.16309 19.6854C9.13164 19.7539 9.13526 19.8342 9.17596 19.8975C9.21665 19.9616 9.28697 19.9999 9.36281 19.9999H13.0383C13.2677 19.9999 13.4767 19.8673 13.5729 19.6597L14.8124 16.9998L7.61294 9.82283C6.51602 8.72854 6.22003 7.06428 6.87671 5.65923L8.32513 2.55088C9.0521 0.994868 10.6133 0 12.3299 0H26.9543C27.9606 0 28.8985 0.513989 29.4386 1.36232C29.9788 2.21139 30.049 3.27772 29.6236 4.19011L27.8478 7.99949H19.0206L20.7391 4.31381C20.7724 4.24532 20.7668 4.16582 20.7261 4.10175C20.6854 4.03842 20.6151 4.00013 20.5392 4.00013H16.8526C16.6233 4.00013 16.4161 4.13268 16.318 4.33961L15.0787 6.99948L21.9118 13.8119C23.2288 15.1249 23.5822 17.1228 22.796 18.8084L21.5658 21.4484ZM75.6445 9.78822L69.0167 24H60.1895L71.3808 0H80.2097V14.1948L86.8283 0H95.6555L84.4643 24H75.6445V9.78822Z" fill="white"/>
</svg>
