<svg width="647" height="363" viewBox="0 0 647 363" fill="none" xmlns="http://www.w3.org/2000/svg">
<g clip-path="url(#clip0_4002_19049)">
<path d="M56.96 166.849C40.08 166.849 25.24 164.437 12.44 159.632C6.4 157.36 3.22 150.722 5.2 144.582L9.7 130.649C11.72 124.389 18.38 120.941 24.74 122.755C36.14 126.004 46.56 127.639 56.02 127.639C62.8 127.639 67.74 126.861 70.82 125.326C74.06 123.632 75.68 121.18 75.68 117.951C75.68 115.798 74.84 113.944 73.14 112.409C71.44 110.715 68.04 108.881 62.96 106.867C57.86 104.874 50.24 102.402 40.06 99.4918C27.56 95.8041 17.84 89.804 10.9 81.5115C3.98 73.0595 0.5 63.3716 0.5 52.4677C0.5 35.5438 6.06 22.7861 17.16 14.1747C28.42 5.40374 43.54 1.01828 62.52 1.01828C72.4 1.01828 82.12 2.09471 91.68 4.24758C96.84 5.32401 101.66 6.69945 106.2 8.35396C112.44 10.6264 115.6 17.5634 113.36 23.7828L108.58 37.1186C106.42 43.1187 99.96 46.4277 93.8 44.6736C89.52 43.4576 85.58 42.5207 81.98 41.8429C75.66 40.4675 69.48 39.7698 63.46 39.7698C53.28 39.7698 48.18 42.5406 48.18 48.0823C48.18 50.8531 49.8 53.2252 53.04 55.2385C56.44 57.0924 63.3 59.4645 73.64 62.3948C89.84 66.7005 102.1 73.3186 110.44 82.2291C118.78 91 122.94 101.525 122.94 113.824C122.94 130.888 117.38 144.044 106.28 153.254C95.18 162.324 78.74 166.868 57 166.868H56.96V166.849Z" fill="white"/>
<path d="M434.12 360.188C419.4 360.188 406.26 358.354 394.68 354.666C386 351.915 381.22 342.626 384.02 333.975L385.9 328.154C388.6 319.821 397.36 315.157 405.88 317.37C415.76 319.921 424.88 321.197 433.22 321.197C439.96 321.197 444.88 320.439 447.94 318.904C451.16 317.23 452.76 314.778 452.76 311.569C452.76 309.436 451.92 307.602 450.24 306.067C448.56 304.393 445.18 302.559 440.12 300.565C435.06 298.572 427.48 296.14 417.34 293.23C404.92 289.562 395.26 283.602 388.36 275.349C381.46 266.937 378 257.309 378 246.465C378 229.66 383.52 216.962 394.56 208.411C405.76 199.7 420.78 195.354 439.64 195.354C449.46 195.354 459.12 196.43 468.62 198.563C471.82 199.241 474.9 200.019 477.84 200.896C486.88 203.627 491.84 213.295 488.66 222.165L486.78 227.428C483.9 235.461 475.32 239.886 467.04 237.754C464.18 237.016 461.5 236.398 458.96 235.92C452.68 234.544 446.54 233.846 440.56 233.846C430.44 233.846 425.38 236.597 425.38 242.099C425.38 244.85 426.98 247.222 430.2 249.196C433.58 251.03 440.4 253.402 450.68 256.312C466.78 260.598 478.98 267.156 487.26 276.027C495.54 284.738 499.68 295.203 499.68 307.442C499.68 324.406 494.16 337.483 483.12 346.633C472.08 355.643 455.76 360.168 434.14 360.168H434.12V360.188Z" fill="white"/>
<path d="M534.06 197.866H640.92C644 197.866 646.48 200.218 646.48 203.148V227.826C646.48 230.757 644 233.109 640.92 233.109H584.92C581.84 233.109 579.36 235.461 579.36 238.391V256.79C579.36 259.721 581.84 262.073 584.92 262.073H635.78C638.86 262.073 641.34 264.425 641.34 267.355V285.994C641.34 288.924 638.86 291.276 635.78 291.276H584.92C581.84 291.276 579.36 293.628 579.36 296.559V316.811C579.36 319.742 581.84 322.094 584.92 322.094H640.92C644 322.094 646.48 324.446 646.48 327.376V352.055C646.48 354.985 644 357.337 640.92 357.337H534.06C530.98 357.337 528.5 354.985 528.5 352.055V203.148C528.5 200.218 530.98 197.866 534.06 197.866Z" fill="white"/>
<path d="M292.02 248.039V348.646C292.02 356.301 298.24 362.5 305.92 362.5H331.24C338.92 362.5 345.14 356.301 345.14 348.646V246.684L319.18 276.106L292 248.039H292.02Z" fill="white"/>
<path d="M344.34 131.147V13.5767C344.34 6.36057 338.46 0.5 331.22 0.5H304C296.76 0.5 290.88 6.36057 290.88 13.5767V133.459L318.78 105.751L344.34 131.147Z" fill="white"/>
<path d="M354.86 141.752C361.1 149.965 365.28 160.111 366.92 171.114C367.8 177.015 366.52 183.095 363.42 187.699C360.32 192.304 355.74 194.995 350.92 194.995C345.06 194.995 339.88 190.171 338.26 183.174C336.62 176.178 338.94 168.682 343.9 164.795C345.44 163.599 347.08 162.603 348.8 161.805L343.04 155.626L319.42 130.23L293.66 157.938L290.06 161.805C291.8 162.583 293.44 163.579 294.96 164.795C299.92 168.682 302.22 176.178 300.6 183.174C298.96 190.171 293.8 194.995 287.94 194.995C283.1 194.995 278.52 192.304 275.44 187.699C272.36 183.095 271.06 177.015 271.94 171.114C273.58 160.131 277.76 149.965 284 141.752L259.4 111.233V184.829C259.4 203.627 273.52 218.876 290.96 218.876H291.26L292.9 220.71L318 248.777L341.98 219.354L342.36 218.876H347.96C365.38 218.876 379.52 203.627 379.52 184.829V111.233L354.92 141.752H354.86Z" fill="url(#paint0_linear_4002_19049)"/>
<path fill-rule="evenodd" clip-rule="evenodd" d="M151.92 2.4934C146.72 2.4934 142.5 6.85893 142.5 12.2212V152.217C142.5 157.579 146.72 161.945 151.92 161.945H181.5C186.7 161.945 190.92 157.579 190.92 152.217V117.213C190.92 111.851 195.14 107.485 200.34 107.485C213.34 107.485 225.14 105.392 235.76 101.226C246.52 96.9004 254.96 90.7807 261.08 82.9068C267.36 75.013 270.5 65.8434 270.5 55.3183C270.5 38.6336 264.16 25.6566 251.46 16.3674C238.9 7.09813 221.12 2.47346 198.1 2.47346H151.92V2.4934ZM214.52 43.6769L204.16 16.7661L193.8 43.6769L166.8 54.0026L193.8 64.3284L204.16 91.2392L214.52 64.3284L241.52 54.0026L214.52 43.6769Z" fill="white"/>
<path d="M402.68 0.5H442.18C443.5 0.5 444.76 1.13789 445.54 2.21432L499.18 75.7306C501.58 79.0197 506.72 77.3054 506.72 73.2189V4.72599C506.72 2.39372 508.6 0.5 510.9 0.5H543.34C545.64 0.5 547.52 2.39372 547.52 4.72599V154.948C547.52 157.28 545.64 159.174 543.34 159.174H503.98C502.68 159.174 501.46 158.556 500.68 157.519L446.54 86.4351C444.1 83.2457 439.06 84.98 439.06 89.0265V154.948C439.06 157.28 437.18 159.174 434.88 159.174H402.68C400.38 159.174 398.5 157.28 398.5 154.948V4.72599C398.5 2.39372 400.36 0.5 402.66 0.5H402.68Z" fill="white"/>
<path d="M545.54 108.004V54.0824C559.98 65.1457 578.94 73.9764 600.74 79.7772L605.54 81.053L604.52 81.3121C581.52 87.4119 561.32 96.5616 545.54 108.004Z" fill="white"/>
<path d="M233.26 360.188C204.44 360.188 186.8 346.892 180.36 320.3L175.74 301.303C175.08 298.592 172.66 296.698 169.86 296.698C166.52 296.698 163.8 299.389 163.8 302.738V350.5C163.8 353.829 161.1 356.54 157.74 356.54H119.48C116.14 356.54 113.42 353.849 113.42 350.5V204.843C113.42 201.514 116.12 198.803 119.48 198.803H183.12C196.3 198.803 207.88 200.796 217.86 204.763C227.98 208.59 235.8 214.012 241.32 221.049C246.84 228.086 249.6 236.179 249.6 245.348C249.6 255.594 247.08 264.226 242.02 271.262C237.8 277.183 231.54 282.186 223.24 286.293C220.76 287.529 219.38 290.259 219.96 292.97C220.8 296.937 221.72 300.625 222.7 304.034C224.54 309.835 227.08 313.901 230.3 316.193C233.52 318.486 238.2 319.642 244.32 319.642C245.26 319.642 246.44 319.582 247.84 319.463C251.38 319.164 254.44 321.915 254.44 325.463V351.776C254.44 354.407 252.72 356.759 250.2 357.556C244.46 359.33 238.82 360.208 233.28 360.208H233.26V360.188ZM172.54 264.605C183.88 264.605 191.86 263.389 196.46 260.937C201.22 258.345 203.6 253.98 203.6 247.86C203.6 242.657 201.68 238.91 197.84 236.617C194 234.165 187.96 232.949 179.66 232.949H169.84C166.5 232.949 163.78 235.641 163.78 238.989V258.565C163.78 261.894 166.48 264.605 169.84 264.605H172.54Z" fill="white"/>
<path d="M113.54 301.303C97.76 289.861 77.56 280.711 54.56 274.611L53.54 274.352L58.34 273.076C80.12 267.276 99.1 258.465 113.54 247.382V301.303Z" fill="white"/>
</g>
<defs>
<linearGradient id="paint0_linear_4002_19049" x1="318.5" y1="140.037" x2="319.454" y2="248.777" gradientUnits="userSpaceOnUse">
<stop stop-color="#F99622"/>
<stop offset="0.564623" stop-color="#FDCA16"/>
<stop offset="1" stop-color="#FEAB16"/>
</linearGradient>
<clipPath id="clip0_4002_19049">
<rect width="646" height="362" fill="white" transform="translate(0.5 0.5)"/>
</clipPath>
</defs>
</svg>
